HIERARCHY
ROOT Hips
{
  OFFSET 52.4275 85.2981 16.8071
  CHANNELS 6 Xposition Yposition Zposition Zrotation Xrotation Yrotation
  JOINT spine
  {
    OFFSET 0 6.3926 0.367606
    CHANNELS 3 Zrotation Xrotation Yrotation
    JOINT spine1
    {
      OFFSET 0 9.17611 0
      CHANNELS 3 Zrotation Xrotation Yrotation
      JOINT spine2
      {
        OFFSET 0 8.79238 0
        CHANNELS 3 Zrotation Xrotation Yrotation
        JOINT Neck
        {
          OFFSET 0 22.5737 1.07624
          CHANNELS 3 Zrotation Xrotation Yrotation
          JOINT Head
          {
            OFFSET 0 6.82011 0
            CHANNELS 3 Zrotation Xrotation Yrotation
            End Site
            {
              OFFSET 0 16.5085 -5.44427
            }
          }
        }
        JOINT RightShoulder
        {
          OFFSET -3.70221 9.49509 -0.515508
          CHANNELS 3 Zrotation Xrotation Yrotation
          JOINT RightArm
          {
            OFFSET 0 12.4537 0
            CHANNELS 3 Zrotation Xrotation Yrotation
            JOINT RightArmRoll
            {
              OFFSET 0 6.28686 0
              CHANNELS 3 Zrotation Xrotation Yrotation
              JOINT RightForeArm
              {
                OFFSET 0 18.3114 0
                CHANNELS 3 Zrotation Xrotation Yrotation
                JOINT RightForeArmRoll
                {
                  OFFSET 0 7.05482 0
                  CHANNELS 3 Zrotation Xrotation Yrotation
                  JOINT RightHand
                  {
                    OFFSET 0 14.1575 0
                    CHANNELS 3 Zrotation Xrotation Yrotation
                    End Site
                    {
                      OFFSET 0 0 0
                    }
                  }
                }
              }
            }
          }
        }
        JOINT LeftShoulder
        {
          OFFSET 3.70221 9.49509 -0.515508
          CHANNELS 3 Zrotation Xrotation Yrotation
          JOINT LeftArm
          {
            OFFSET 0 12.4537 0
            CHANNELS 3 Zrotation Xrotation Yrotation
            JOINT LeftArmRoll
            {
              OFFSET 0 6.28686 0
              CHANNELS 3 Zrotation Xrotation Yrotation
              JOINT LeftForeArm
              {
                OFFSET 0 18.3114 0
                CHANNELS 3 Zrotation Xrotation Yrotation
                JOINT LeftForeArmRoll
                {
                  OFFSET 0 7.05482 0
                  CHANNELS 3 Zrotation Xrotation Yrotation
                  JOINT LeftHand
                  {
                    OFFSET 0 14.1575 0
                    CHANNELS 3 Zrotation Xrotation Yrotation
                    End Site
                    {
                      OFFSET 0 0 0
                    }
                  }
                }
              }
            }
          }
        }
      }
    }
  }
  JOINT RightUpLeg
  {
    OFFSET -5.66616 -1.03903 -0.87161
    CHANNELS 3 Zrotation Xrotation Yrotation
    JOINT RightUpLegRoll
    {
      OFFSET 0 16.6005 0
      CHANNELS 3 Zrotation Xrotation Yrotation
      JOINT RightLeg
      {
        OFFSET 0 -20.5572 0
        CHANNELS 3 Zrotation Xrotation Yrotation
        JOINT RightLegRoll
        {
          OFFSET 0 20.6244 0
          CHANNELS 3 Zrotation Xrotation Yrotation
          JOINT RightFoot
          {
            OFFSET 0 17.1664 0
            CHANNELS 3 Zrotation Xrotation Yrotation
            JOINT RightToeBase
            {
              OFFSET 0 14.3502 0
              CHANNELS 3 Zrotation Xrotation Yrotation
              End Site
              {
                OFFSET 0.00608252 6.9497 -0.801061
              }
            }
          }
        }
      }
    }
  }
  JOINT LeftUpLeg
  {
    OFFSET 5.66616 -1.03903 -0.87161
    CHANNELS 3 Zrotation Xrotation Yrotation
    JOINT LeftUpLegRoll
    {
      OFFSET 0 16.6006 0
      CHANNELS 3 Zrotation Xrotation Yrotation
      JOINT LeftLeg
      {
        OFFSET 0 20.5571 0
        CHANNELS 3 Zrotation Xrotation Yrotation
        JOINT LeftLegRoll
        {
          OFFSET 0 20.8151 0
          CHANNELS 3 Zrotation Xrotation Yrotation
          JOINT LeftFoot
          {
            OFFSET 0 16.9757 0
            CHANNELS 3 Zrotation Xrotation Yrotation
            JOINT LeftToeBase
            {
              OFFSET 0 14.3502 0
              CHANNELS 3 Zrotation Xrotation Yrotation
              End Site
              {
                OFFSET -0.0272592 6.94971 -0.801061
              }
            }
          }
        }
      }
    }
  }
}
MOTION
Frames: 4
Frame Time: 0.00208333
52.2444 85.3016 9.44614 -0.733235 -0.543982 -2.05959 -0.407223 -1.65376 -0.253881 -0.815228 0.696835 -0.460162 -0.810117 2.34179 -0.446914 6.84552 10.5418 -1.31583 -3.77024 5.60399 0.598065 67.6283 -2.77475 -2.46979 104.31 18.2649 1.60801 1.16164e-006 1.5772e-006 -4.26902e-006 16.2004 6.60073 -1.13791 -1.48717e-006 3.45548e-006 -3.00826 8.02901 -4.95144 0.697709 -56.3734 -0.0760089 -0.285119 -110.257 15.4483 0.901683 4.98912e-006 3.45197e-007 3.87747e-006 -11.8448 6.66372 1.21799 -2.00954e-006 -1.24661e-006 3.00109 -8.02888 -4.95145 -0.697695 -178.874 1.64076 -1.25669 180 7.01571e-015 179.035 175.45 7.60055 179.912 -3.12544e-007 1.71389e-006 0.174774 -21.4341 68.7551 20.237 8.1292 25.2371 -3.47983 179.615 -0.147744 3.37141 4.54188e-006 -4.6773e-006 -1.04157 -1.75863 -7.03837 0.279991 3.16957e-006 2.76371e-007 -0.191484 22.1867 69.8817 -21.3518 -8.13403 25.2394 3.48346 
52.2519 85.3005 9.45105 -0.73257 -0.52307 -2.0607 -0.406846 -1.65541 -0.253969 -0.814772 0.693542 -0.461152 -0.809651 2.3385 -0.447897 6.84357 10.5492 -1.319 -3.76646 5.58637 0.594237 67.635 -2.77152 -2.46867 104.311 18.2724 1.60594 1.16164e-006 1.5772e-006 -4.26902e-006 16.1986 6.60853 -1.13938 -1.48717e-006 3.45548e-006 -3.00826 8.02901 -4.95144 0.697709 -56.3711 -0.0828674 -0.280979 -110.258 15.4437 0.908308 4.98912e-006 3.45197e-007 3.87747e-006 -11.8508 6.67636 1.2199 -2.00954e-006 -1.24661e-006 3.00109 -8.02888 -4.95145 -0.697695 -178.87 1.66721 -1.26247 180 7.01571e-015 179.035 175.453 7.60711 179.912 -3.12544e-007 1.71389e-006 0.174692 -21.4447 68.7554 20.2376 8.1292 25.2371 -3.47983 179.613 -0.109976 3.37409 4.54188e-006 -4.6773e-006 -1.0406 -1.75874 -7.06885 0.280282 3.16957e-006 2.76371e-007 -0.192013 22.2006 69.8938 -21.3645 -8.13403 25.2394 3.48346 
52.2484 85.3013 9.44815 -0.73213 -0.503265 -2.0621 -0.406404 -1.65688 -0.254098 -0.814218 0.690599 -0.462267 -0.809085 2.33556 -0.449005 6.84089 10.5571 -1.3217 -3.76238 5.56879 0.590702 67.6415 -2.76739 -2.46707 104.313 18.2798 1.60418 1.16164e-006 1.5772e-006 -4.26902e-006 16.1966 6.61638 -1.14087 -1.48717e-006 3.45548e-006 -3.00826 8.02901 -4.95144 0.697709 -56.3692 -0.0903641 -0.276388 -110.259 15.4391 0.914846 4.98912e-006 3.45197e-007 3.87747e-006 -11.8568 6.68878 1.2218 -2.00954e-006 -1.24661e-006 3.00109 -8.02888 -4.95145 -0.697695 -178.865 1.6921 -1.26814 180 7.01571e-015 179.035 175.455 7.61307 179.912 -3.12544e-007 1.71389e-006 0.174569 -21.4549 68.7555 20.238 8.1292 25.2371 -3.47983 179.611 -0.0739148 3.37628 4.54188e-006 -4.6773e-006 -1.0396 -1.75905 -7.09862 0.280545 3.16957e-006 2.76371e-007 -0.192523 22.2144 69.9059 -21.3771 -8.13403 25.2394 3.48346 
52.2487 85.2988 9.45155 -0.731847 -0.484239 -2.06369 -0.405917 -1.65823 -0.254256 -0.813594 0.687902 -0.463469 -0.808449 2.33286 -0.450201 6.83768 10.5652 -1.32407 -3.75808 5.55123 0.587374 67.6478 -2.76263 -2.46512 104.315 18.2872 1.60265 1.16164e-006 1.5772e-006 -4.26902e-006 16.1944 6.62425 -1.14238 -1.48717e-006 3.45548e-006 -3.00826 8.02901 -4.95144 0.697709 -56.3674 -0.0983098 -0.27148 -110.26 15.4346 0.921323 4.98912e-006 3.45197e-007 3.87747e-006 -11.863 6.70105 1.22368 -2.00954e-006 -1.24661e-006 3.00109 -8.02888 -4.95145 -0.697695 -178.86 1.71589 -1.27374 180 7.01571e-015 179.035 175.458 7.61858 179.912 -3.12544e-007 1.71389e-006 0.174417 -21.4646 68.7555 20.2382 8.1292 25.2371 -3.47983 179.609 -0.0390546 3.37811 4.54188e-006 -4.6773e-006 -1.03858 -1.75951 -7.12789 0.280789 3.16957e-006 2.76371e-007 -0.19302 22.2282 69.9178 -21.3895 -8.13403 25.2394 3.48346 
